PathFileType	4	(X/Y/Z)	/Users/mathieubourgeois/Desktop/Analyse/Traitement/Sujet_07/Data/Transformed_Sujet_07_velo_100.trc
DataRate	CameraRate	NumFrames	NumMarkers	Units	OrigDataRate	OrigDataStartFrame	OrigNumFrames
120.000000	120.000000	4	36	mm	120.000000	0	1864
Frame#	Time	RKNE			RKNI			LKNI			LKNE			LANI			LANE			LTOE			LHEE			RHEE			RTOE			RANE			RANI			RFWT			LFWT			RBWT			LBWT			T10			C7			RSHO			LSHO			LWRA			LWRB			RWRA			RWRB			RCAR			LCAR			LHUM			LRAD			RRAD			RHUM			STRN			RFHD			LFHD			RBHD			LBHD			CLAV			
		X1	Y1	Z1	X2	Y2	Z2	X3	Y3	Z3	X4	Y4	Z4	X5	Y5	Z5	X6	Y6	Z6	X7	Y7	Z7	X8	Y8	Z8	X9	Y9	Z9	X10	Y10	Z10	X11	Y11	Z11	X12	Y12	Z12	X13	Y13	Z13	X14	Y14	Z14	X15	Y15	Z15	X16	Y16	Z16	X17	Y17	Z17	X18	Y18	Z18	X19	Y19	Z19	X20	Y20	Z20	X21	Y21	Z21	X22	Y22	Z22	X23	Y23	Z23	X24	Y24	Z24	X25	Y25	Z25	X26	Y26	Z26	X27	Y27	Z27	X28	Y28	Z28	X29	Y29	Z29	X30	Y30	Z30	X31	Y31	Z31	X32	Y32	Z32	X33	Y33	Z33	X34	Y34	Z34	X35	Y35	Z35	X36	Y36	Z36	

1	0	-149.6396789550782	757.3345336914062	241.9149627685546	-126.1693267822266	699.8373413085938	138.6300506591796	-56.75959396362305	850.938232421875	-23.03853797912604	-36.44643783569335	896.0755615234375	-129.5250701904297	-321.6518859863281	582.8016967773438	-32.80334472656258	-346.1490783691406	588.1058349609375	-118.9532775878907	-213.7458343505859	420.8946533203125	-98.59955596923834	-402.7682800292969	608.2113037109375	-76.9092559814454	-214.8728942871094	284.6871948242188	178.2381134033203	42.36285018920896	213.775146484375	189.9277954101562	-159.3460693359375	299.7957153320312	220.4074554443359	-133.5475769042969	315.6199645996094	135.1212463378906	-274.3362731933594	1208.366333007812	162.864776611328	-294.9773559570312	1222.342651367188	-51.23493957519543	-430.4089050292969	1295.701049804688	130.6562347412108	-442.9306640625	1300.844116210938	17.92163467407213	-178.6287078857422	1503.434448242188	51.81815719604481	67.71852874755858	1462.1748046875	64.11552429199212	68.6245422363281	1408.303833007812	204.0582427978515	90.83216094970705	1442.483520507812	-65.80625915527351	315.8392028808594	934.3621215820312	-107.320182800293	277.5225524902344	888.1724243164062	-156.4247741699219	319.6175231933593	938.4668579101562	255.7517700195312	281.1704101562499	895.771484375	304.8750915527344	370.5539550781249	921.767333984375	344.2302551269531	373.3583068847656	914.8048095703125	-192.7412109375	96.80526733398439	1123.322021484375	-171.187728881836	159.8818054199219	1139.73046875	-183.9537200927735	103.1917724609375	1106.247192382812	305.6724853515624	59.08673095703122	1077.932983398438	259.4059143066406	-135.9564361572266	1272.701049804688	44.94152069091788	245.7826690673828	1315.704711914062	193.4410400390624	280.9982299804688	1298.371337890625	65.82295989990229	197.1407318115234	1458.68701171875	178.6967315673828	232.3252868652344	1456.381713867188	37.59496688842767	35.97785568237304	1327.326538085938	68.16237640380851	
2	0.008333333333333333	-160.1447143554688	750.370361328125	241.4107818603515	-137.8252716064453	692.9844970703125	138.8479919433593	-50.30639266967773	861.18994140625	-23.26564025878912	-30.3763084411621	906.3165283203125	-129.4932861328126	-314.5869140625	592.6962890625	-31.94997215271004	-339.0380859375	597.7575073242188	-118.1218948364259	-202.371337890625	434.0680847167969	-97.69988250732428	-396.193603515625	616.7078857421875	-76.14486694335946	-223.1625213623047	278.703369140625	176.7271118164062	32.02249908447263	201.1056976318359	189.2876892089844	-168.0068054199219	292.5242004394531	219.4626464843749	-141.0888671875	308.6833190917969	134.6739959716796	-273.9872741699219	1207.758422851562	162.6940307617186	-294.4777526855469	1222.938232421875	-51.0863609313966	-429.7946166992188	1295.641845703125	130.9127960205077	-442.4203186035156	1301.383911132812	18.20709991455065	-178.3132019042969	1503.56103515625	51.68629837036121	68.07682800292967	1462.364868164062	62.5917434692382	69.23941802978513	1408.398193359375	202.4956817626952	91.02619934082033	1442.66064453125	-67.36543273925788	315.8441467285156	934.4539794921875	-107.6985092163086	277.5757141113281	888.1707153320312	-156.7704315185547	319.7365112304687	938.4292602539062	255.4747772216797	281.2625427246093	895.8428955078125	304.6036071777344	370.6179809570312	921.8289794921875	343.9607543945312	373.4266662597656	914.6649169921875	-192.9967346191406	97.10479736328126	1123.403930664062	-172.3757324218751	160.1587982177735	1139.7841796875	-185.1251220703125	103.4996261596679	1106.4990234375	304.8882446289062	59.3192329406738	1078.07080078125	258.7419433593749	-135.4955444335938	1272.941284179688	43.49993133544913	245.7247314453125	1315.761108398438	192.2566375732421	281.1461791992188	1298.274780273438	64.66521453857416	197.3492584228515	1458.82373046875	177.2758026123046	232.6984100341797	1456.31689453125	36.22428894042962	36.22391510009765	1327.499877929688	66.72983551025382	
3	0.01666666666666667	-170.1495819091797	744.4757080078125	240.9823455810546	-147.3131408691407	687.1270141601562	138.3625946044921	-44.36912536621094	871.167724609375	-23.61486244201666	-24.79143333435057	916.1643676757812	-129.5827941894532	-307.7534790039062	601.5878295898438	-30.6334419250489	-331.7010498046875	606.1259765625	-117.3943252563477	-190.4044036865234	446.390380859375	-96.66132354736334	-389.4698486328125	623.603515625	-75.4049606323243	-232.333984375	273.7149963378906	175.0680084228515	20.53594779968259	189.7197418212891	188.815185546875	-177.6095275878907	286.2133178710938	218.4528045654296	-149.4434814453125	302.6810302734375	134.138931274414	-273.7132568359375	1207.38037109375	162.5962982177733	-293.9835815429688	1223.498046875	-50.93323898315441	-429.2423400878906	1295.746948242188	131.0093994140624	-441.906982421875	1302.00732421875	18.29847335815417	-177.9780578613281	1503.697021484375	51.4955596923827	68.43598175048827	1462.549438476562	61.12935256957999	69.81087493896482	1408.459350585938	201.0680999755859	91.25023651123048	1442.869995117188	-68.78937530517585	315.8662109375	934.572509765625	-108.0723648071289	277.6415710449219	888.1824340820312	-157.0675048828125	319.8962097167968	938.3782348632812	255.1617431640625	281.3640441894531	895.8906860351562	304.3538818359375	370.6713256835937	921.8886108398438	343.7408752441406	373.5353698730469	914.5779418945312	-193.2079010009766	97.49875640869142	1123.57861328125	-173.6210632324219	160.5844421386719	1139.887451171875	-186.2664184570313	103.8072052001953	1106.742553710938	304.1775512695312	59.58453750610349	1078.18896484375	258.0481872558593	-135.0498046875	1273.129272460938	42.15314483642569	245.7670135498047	1315.83837890625	191.1147918701171	281.3591613769531	1298.210205078125	63.56888580322261	197.5837097167968	1459.000610351562	175.9503936767578	233.1029968261719	1456.254760742188	34.93062591552728	36.46979141235351	1327.657836914062	65.37574768066398	
4	0.025	-179.3655700683594	739.381103515625	240.4799804687499	-155.871322631836	682.0022583007812	137.6918640136718	-38.43214416503906	880.5969848632812	-23.85128402709967	-20.27979469299315	925.36962890625	-130.0459136962891	-300.2009582519531	609.0410766601562	-29.71885490417488	-324.1399841308594	612.90966796875	-116.7193679809571	-177.6582641601562	458.0337524414062	-95.64360809326178	-382.6041870117188	628.5917358398438	-74.33474731445321	-241.8430786132813	269.629638671875	172.1340332031249	7.163348197936989	179.8769836425781	188.7975158691406	-188.4533996582032	280.8499450683594	217.3587799072265	-159.0284881591797	297.5527954101562	133.5418090820312	-273.5610961914062	1207.208618164062	162.5638122558593	-293.3901977539062	1224.04296875	-50.78476333618175	-428.7240905761719	1295.924194335938	130.9142913818358	-441.3028564453125	1302.61962890625	18.21865463256823	-177.6013031005859	1503.817626953125	51.27048492431629	68.80078124999999	1462.702392578125	59.78817367553702	70.38876342773435	1408.500610351562	199.7390594482421	91.51589202880861	1443.1142578125	-70.15138244628913	315.9984130859375	934.7095336914062	-108.30322265625	277.723388671875	888.2349853515625	-157.2742156982422	320.0119323730468	938.3348388671875	254.9742889404297	281.4341125488281	895.91943359375	304.1868896484375	370.5054931640624	921.9616088867188	343.7815551757812	373.6446838378906	914.506591796875	-193.3590393066406	97.77969360351565	1123.763305664062	-175.8384399414063	161.0522918701172	1140.103393554688	-187.5706481933594	104.1293029785156	1106.9384765625	303.5299377441406	59.81816864013669	1078.31298828125	257.4945068359374	-134.5789031982422	1273.214111328125	40.84621810913077	245.5000915527343	1315.97265625	189.966323852539	281.6189270019531	1298.178588867188	62.53012847900386	197.8402557373047	1458.740356445312	174.0250396728515	233.5535430908203	1456.210815429688	33.70222473144525	36.7466926574707	1327.789428710938	64.1163787841796	
